# xmcd
#
# Track frame offsets:
#	150
#	38457
#	66667
#	100382
#
# Disc length: 1792 seconds
#
# Revision: 1
# Processed by: cddbd v1.5.1PL0 Copyright (c) Steve Scherf et al.
# Submitted via: CDex 1.50Beta5
#
DISCID=3106fe04
DTITLE=水樹奈々 - バディパーティー5 2ndシーズン 第2章 Disc 1
DYEAR=2002
DGENRE=
TTITLE0=『ハイネ受難の日』
TTITLE1=その1 『いじめっ子、いじめられっ子』
TTITLE2=『ミユウ、危機一髪!』
TTITLE3=その1 『友達へ至る道』
EXTD=
EXTT0=
EXTT1=
EXTT2=
EXTT3=
PLAYORDER=
